<svg width="20" height="20" viewBox="0 0 20 20" fill="none" xmlns="http://www.w3.org/2000/svg">
<path fill-rule="evenodd" clip-rule="evenodd" d="M9.99889 0C7.34702 0 4.80376 1.05357 2.92861 2.92893C1.05345 4.8043 0 7.34784 0 10C0 12.6522 1.05345 15.1957 2.92861 17.0711C4.80376 18.9464 7.34702 20 9.99889 20C12.6508 20 15.194 18.9464 17.0692 17.0711C18.9443 15.1957 19.9978 12.6522 19.9978 10C19.9978 7.34784 18.9443 4.8043 17.0692 2.92893C15.194 1.05357 12.6508 0 9.99889 0ZM3.81239 3.81282C5.45315 2.17187 7.6785 1.25 9.99889 1.25C12.3193 1.25 14.5446 2.17187 16.1854 3.81282C17.8261 5.45376 18.7479 7.67936 18.7479 10C18.7479 12.3206 17.8261 14.5462 16.1854 16.1872C14.5446 17.8281 12.3193 18.75 9.99889 18.75C7.6785 18.75 5.45315 17.8281 3.81239 16.1872C2.17163 14.5462 1.24986 12.3206 1.24986 10C1.24986 7.67936 2.17163 5.45376 3.81239 3.81282ZM7.05897 6.17027C6.81492 5.92619 6.41924 5.92619 6.17519 6.17027C5.93114 6.41434 5.93114 6.81007 6.17519 7.05415L9.12147 10.0008L6.17519 12.9474C5.93114 13.1915 5.93114 13.5872 6.17519 13.8313C6.41924 14.0753 6.81492 14.0753 7.05897 13.8313L10.0053 10.8846L12.9509 13.8306C13.1949 14.0747 13.5906 14.0747 13.8347 13.8306C14.0787 13.5865 14.0787 13.1908 13.8347 12.9467L10.889 10.0008L13.8347 7.05482C14.0787 6.81074 14.0787 6.41501 13.8347 6.17094C13.5906 5.92686 13.1949 5.92686 12.9509 6.17094L10.0053 9.11688L7.05897 6.17027Z" fill="#7C8192"/>
</svg>
