<svg width="100" height="93" viewBox="0 0 100 93" fill="none" xmlns="http://www.w3.org/2000/svg">
<path d="M70.9021 48.1976L70.9167 48.432L73.5935 91.8002L73.6101 92.0658H15.5222L15.5378 91.8002L18.2156 48.432L18.2302 48.1976H70.9021Z" fill="#5869D9" fill-opacity="0.4" stroke="#E0E0E0" stroke-width="0.5"/>
<path d="M42.8421 61.7078C42.8421 65.0873 44.1021 68.3428 45.2903 71.4773C45.8055 72.8364 46.4701 74.2527 46.5789 75.7174C46.6248 76.3362 46.8582 77.3372 46.5288 77.904C45.9406 78.916 43.1369 78.6798 42.2837 78.6609C39.5052 78.5993 36.6846 78.118 34.1087 77.07C33.5296 76.8344 32.4575 76.4499 32.813 75.6263C33.3248 74.4403 35.3262 73.6923 36.3708 73.1663C39.7266 71.4767 43.1921 70.2904 46.9082 69.6622C48.627 69.3716 50.4067 68.9814 52.1554 68.9053C52.4417 68.8928 53.3909 68.8049 52.5348 68.9544C47.7499 69.7896 42.9949 70.8088 38.2177 71.6876C35.5449 72.1793 32.8568 72.6372 30.1715 73.0612C29.3585 73.1896 26.9315 73.6051 27.7232 73.3836C29.7596 72.814 31.7167 71.9048 33.7221 71.2391C39.2077 69.4179 45.0653 68.1164 50.8024 67.3565C54.2487 66.9 57.7171 66.6794 61.168 66.2772C62.0906 66.1696 63.0421 65.9968 63.9741 65.9968" stroke="#7583E3" stroke-width="0.5" stroke-linecap="round"/>
<path d="M62.9248 12.6577L62.999 12.7378L72.6836 23.1577L72.7578 23.2378L72.749 23.3472L70.8613 47.9272L70.8438 48.1577H18.2705L18.251 47.9292L15.251 12.9292L15.2275 12.6577H62.9248Z" fill="#5869D9" fill-opacity="0.4" stroke="#E0E0E0" stroke-width="0.5"/>
<path d="M63.3574 13.6128L72.1797 22.7339L72.5898 23.1577H61.2002L61.2539 22.8628L62.9316 13.7417L63.0195 13.2632L63.3574 13.6128Z" fill="#DCE4E5" stroke="#E0E0E0" stroke-width="0.5"/>
<rect x="25.1577" y="25.4252" width="28.1087" height="2.14162" rx="1.07081" fill="#DCE4E5"/>
<rect x="25.1577" y="30.7793" width="38.0137" height="2.14162" rx="1.07081" fill="#DCE4E5"/>
<rect x="25.1577" y="36.1333" width="38.0137" height="2.14162" rx="1.07081" fill="#DCE4E5"/>
<rect x="25.1577" y="41.4874" width="38.0137" height="2.14162" rx="1.07081" fill="#DCE4E5"/>
<rect x="87.8633" y="49.5156" width="8.24852" height="26.7252" transform="rotate(48.6406 87.8633 49.5156)" fill="#5869D9"/>
<rect x="89.6062" y="51.4969" width="2.96947" height="26.7252" transform="rotate(48.6406 89.6062 51.4969)" fill="#3243AE"/>
<path d="M92.5679 45.3732C93.6621 44.4099 95.33 44.516 96.2932 45.6102L98.2554 47.839C99.2186 48.9332 99.1125 50.6011 98.0184 51.5643L93.8084 55.2707L88.3579 49.0795L92.5679 45.3732Z" fill="#5869D9"/>
<path d="M63.2579 77.4841C62.7001 77.6768 62.1893 77.0967 62.4512 76.5679L66.5644 68.2656L69.2894 71.361L69.2902 71.3603L67.8738 69.7514C68.284 69.3902 68.9094 69.4295 69.2707 69.8396L69.3797 69.9635C69.7388 70.3714 69.701 70.9917 69.2975 71.3539C69.7078 71.0001 70.3274 71.0418 70.6864 71.4492L70.7954 71.573C71.1567 71.9834 71.1168 72.6094 70.7065 72.9706L72.0145 74.4564L63.2579 77.4841ZM67.9627 68.3538C68.3238 68.7642 68.2834 69.3895 67.8731 69.7507L66.5651 68.2649C66.9754 67.9037 67.6015 67.9435 67.9627 68.3538ZM72.1048 73.0589C72.466 73.4692 72.4262 74.0952 72.0159 74.4565L70.7079 72.9707C71.1181 72.6096 71.7435 72.6489 72.1048 73.0589Z" fill="#F1F1F1"/>
<path d="M63.8813 73.705L66.2795 76.4291L63.1927 77.5472C62.6289 77.7514 62.107 77.1586 62.381 76.6252L63.8813 73.705Z" fill="#7583E3"/>
<circle cx="16.2059" cy="16.2059" r="14.5091" transform="rotate(-7.16694 16.2059 16.2059)" fill="#5869D9"/>
<g clip-path="url(#clip0_3728_11235)">
<path d="M15.3015 9.00817C15.5499 8.97693 15.7767 9.15302 15.8079 9.40147L15.921 10.3012C15.9523 10.5497 15.7762 10.7764 15.5277 10.8076C15.2793 10.8389 15.0525 10.6628 15.0213 10.4143L14.9082 9.51461C14.8769 9.26615 15.053 9.03942 15.3015 9.00817Z" fill="white"/>
<path fill-rule="evenodd" clip-rule="evenodd" d="M14.3906 19.9358C13.6879 19.6496 13.0688 19.1877 12.5938 18.5927C12.0716 17.9386 11.7448 17.1503 11.651 16.3185L11.6507 16.3165C11.5221 15.1291 11.8595 13.9381 12.5918 12.9945C13.3241 12.051 14.3941 11.4286 15.5764 11.2586C15.5817 11.2578 15.587 11.2571 15.5923 11.2566C16.7794 11.1287 17.9698 11.4664 18.9127 12.1987C19.8557 12.9311 20.4777 14.0007 20.6476 15.1825L20.6479 15.1845C20.7635 16.014 20.6423 16.8592 20.2983 17.6228C19.9854 18.3174 19.4998 18.9186 18.8893 19.3701L19.1913 21.7715C19.2363 22.1294 19.1372 22.4906 18.916 22.7755C18.6947 23.0604 18.3693 23.2458 18.0114 23.2908L16.2119 23.517C15.854 23.5621 15.4928 23.463 15.2079 23.2418C14.923 23.0205 14.7376 22.6951 14.6926 22.3371L14.3906 19.9358ZM15.3095 19.9747L15.4226 20.8744L18.1218 20.535L18.0087 19.6353L15.3095 19.9747ZM15.5358 21.7741L15.5923 22.224C15.6073 22.3433 15.6691 22.4518 15.7641 22.5255C15.8591 22.5993 15.9795 22.6323 16.0988 22.6173L17.8982 22.391C18.0175 22.376 18.126 22.3143 18.1998 22.2193C18.2735 22.1243 18.3065 22.0039 18.2915 21.8846L18.235 21.4347L15.5358 21.7741ZM13.3082 13.5505C13.8947 12.7948 14.751 12.2955 15.6975 12.1573C16.6483 12.0569 17.6012 12.3284 18.3565 12.9149C19.1137 13.5029 19.6132 14.3617 19.7499 15.3106C19.8416 15.9705 19.7452 16.6429 19.4715 17.2503C19.2119 17.8266 18.8028 18.3223 18.2876 18.6862L14.8044 19.1242C14.2154 18.8993 13.6967 18.5207 13.3025 18.027C12.8871 17.5066 12.627 16.8795 12.5522 16.2178C12.4491 15.2644 12.7201 14.3081 13.3082 13.5505Z" fill="white"/>
<path d="M9.79528 16.0983C9.54683 16.1295 9.37074 16.3562 9.40198 16.6047C9.43322 16.8531 9.65996 17.0292 9.90842 16.998L10.8081 16.8849C11.0566 16.8536 11.2327 16.6269 11.2014 16.3784C11.1702 16.13 10.9435 15.9539 10.695 15.9851L9.79528 16.0983Z" fill="white"/>
<path d="M10.2722 11.6088C10.4218 11.408 10.7059 11.3666 10.9067 11.5162L11.6462 12.0672C11.847 12.2168 11.8885 12.5009 11.7389 12.7017C11.5893 12.9025 11.3052 12.944 11.1044 12.7944L10.3649 12.2433C10.1641 12.0937 10.1226 11.8096 10.2722 11.6088Z" fill="white"/>
<path d="M21.4918 14.6275C21.2434 14.6587 21.0673 14.8855 21.0985 15.1339C21.1298 15.3824 21.3565 15.5585 21.605 15.5272L22.5047 15.4141C22.7531 15.3829 22.9292 15.1561 22.898 14.9077C22.8667 14.6592 22.64 14.4831 22.3916 14.5144L21.4918 14.6275Z" fill="white"/>
<path d="M20.818 10.2828C21.0126 10.4403 21.0428 10.7258 20.8853 10.9205L20.3052 11.6374C20.1477 11.8321 19.8622 11.8622 19.6675 11.7047C19.4728 11.5472 19.4427 11.2617 19.6002 11.0671L20.1803 10.3501C20.3378 10.1554 20.6233 10.1253 20.818 10.2828Z" fill="white"/>
</g>
<defs>
<clipPath id="clip0_3728_11235">
<rect width="14.5091" height="14.5091" fill="white" transform="translate(8.10352 9.91321) rotate(-7.16694)"/>
</clipPath>
</defs>
</svg>
