<svg width="200" height="80" viewBox="0 0 200 80" fill="none" xmlns="http://www.w3.org/2000/svg">
<path d="M64.293 27.5063V24.0623C64.741 24.8042 65.525 25.2382 66.533 25.2382C68.367 25.2382 69.767 23.7122 69.767 21.2902C69.767 18.8822 68.367 17.3563 66.533 17.3563C65.525 17.3563 64.741 17.7902 64.293 18.5322V17.5243H62.627V27.5063H64.293ZM66.169 23.8802C65.077 23.8802 64.223 23.0262 64.223 21.2902C64.223 19.5542 65.077 18.7143 66.169 18.7143C67.331 18.7143 68.031 19.7083 68.031 21.2902C68.031 22.8862 67.331 23.8802 66.169 23.8802ZM74.415 25.2382C76.249 25.2382 78.125 24.0203 78.125 21.3042C78.125 18.5882 76.249 17.3563 74.415 17.3563C72.581 17.3563 70.705 18.5882 70.705 21.3042C70.705 24.0203 72.581 25.2382 74.415 25.2382ZM74.415 23.8802C73.365 23.8802 72.427 23.0402 72.427 21.3042C72.427 19.5682 73.365 18.7143 74.415 18.7143C75.465 18.7143 76.403 19.5682 76.403 21.3042C76.403 23.0402 75.465 23.8802 74.415 23.8802ZM82.213 25.0562L83.697 19.4843L85.181 25.0562H86.763L88.765 17.5243H86.959L85.853 22.8723L84.551 17.5243H82.829L81.541 22.8723L80.435 17.5243H78.629L80.631 25.0562H82.213ZM93.077 25.2382C95.0229 25.2382 96.143 24.0063 96.493 22.8022H94.8549C94.5609 23.5022 93.875 23.8523 93.007 23.8523C92.055 23.8523 91.075 23.1663 90.963 21.7663H96.577C96.7169 19.2323 95.275 17.3563 92.965 17.3563C90.823 17.3563 89.269 18.9663 89.269 21.2343C89.269 23.3903 90.6549 25.2382 93.077 25.2382ZM94.8829 20.5483H90.963C91.103 19.1203 92.181 18.6583 92.965 18.6583C93.945 18.6583 94.841 19.3723 94.8829 20.5483ZM99.615 25.0562V21.1083C99.615 19.5963 100.217 19.1762 101.267 19.1762C101.519 19.1762 101.785 19.1902 102.065 19.2182V17.5382C101.939 17.5243 101.757 17.5103 101.631 17.5103C100.721 17.5243 99.993 18.0282 99.587 18.8682V17.5243H97.949V25.0562H99.615ZM106.251 25.2382C108.197 25.2382 109.317 24.0063 109.667 22.8022H108.029C107.735 23.5022 107.049 23.8523 106.181 23.8523C105.229 23.8523 104.249 23.1663 104.137 21.7663H109.751C109.891 19.2323 108.449 17.3563 106.139 17.3563C103.997 17.3563 102.443 18.9663 102.443 21.2343C102.443 23.3903 103.829 25.2382 106.251 25.2382ZM108.057 20.5483H104.137C104.277 19.1203 105.355 18.6583 106.139 18.6583C107.119 18.6583 108.015 19.3723 108.057 20.5483ZM113.965 25.2382C114.973 25.2382 115.757 24.8042 116.205 24.0623V25.0562H117.871V14.9062H116.205V18.5322C115.757 17.7902 114.973 17.3563 113.965 17.3563C112.187 17.3563 110.689 18.8822 110.689 21.2902C110.689 23.7122 112.187 25.2382 113.965 25.2382ZM114.329 23.8802C113.223 23.8802 112.425 22.8862 112.425 21.2902C112.425 19.7083 113.223 18.7143 114.329 18.7143C115.421 18.7143 116.275 19.5542 116.275 21.2902C116.275 23.0262 115.421 23.8802 114.329 23.8802ZM126.873 25.2382C128.651 25.2382 130.149 23.7122 130.149 21.2902C130.149 18.8822 128.651 17.3563 126.873 17.3563C125.865 17.3563 125.081 17.7902 124.633 18.5322V14.9062H122.967V25.0562H124.633V24.0623C125.081 24.8042 125.865 25.2382 126.873 25.2382ZM126.509 23.8802C125.417 23.8802 124.563 23.0262 124.563 21.2902C124.563 19.5542 125.417 18.7143 126.509 18.7143C127.615 18.7143 128.413 19.7083 128.413 21.2902C128.413 22.8862 127.615 23.8802 126.509 23.8802ZM131.829 27.5063C133.523 27.5063 134.027 26.9882 134.727 25.0422L137.373 17.5243H135.665L133.957 22.9283L132.249 17.5243H130.429L133.159 25.0142L133.075 25.1962C132.759 26.1186 132.467 26.2225 131.827 26.2315L131.073 26.2323V27.5063H131.829Z" fill="white"/>
<path d="M14 43.8626H19.8378V47.8096H14V43.8626ZM14 49.6192H19.8378V64.7517H14V49.6192ZM23.1839 49.6192H28.62V52.0843C29.4328 51.0774 30.2552 50.3578 31.0871 49.9256C31.919 49.4933 32.9326 49.2772 34.1279 49.2772C35.7439 49.2772 37.0085 49.7546 37.9217 50.7093C38.8349 51.664 39.2915 53.1387 39.2915 55.1336V64.7517H33.4251V56.4303C33.4251 55.4803 33.2482 54.8082 32.8944 54.414C32.5406 54.0198 32.0433 53.8227 31.4027 53.8227C30.695 53.8227 30.1213 54.0887 29.6814 54.6206C29.2416 55.1526 29.0216 56.1073 29.0216 57.4847V64.7517H23.1839V49.6192ZM48.8914 49.6192H51.674V53.8654H48.8914V64.7517H43.0393V53.8654H40.8591V49.6192H43.0393V48.9352C43.0393 48.3178 43.1062 47.6386 43.2401 46.8976C43.3739 46.1567 43.6249 45.5511 43.9931 45.0809C44.3612 44.6106 44.8776 44.2307 45.5422 43.9409C46.2068 43.6512 47.1797 43.5063 48.4611 43.5063L48.9662 43.5148C49.9527 43.5457 51.2713 43.6616 52.9219 43.8626L52.2764 47.3678C51.5784 47.2539 51.0142 47.1969 50.5839 47.1969C50.058 47.1969 49.6803 47.2847 49.4508 47.4605C49.2213 47.6362 49.0587 47.9141 48.9631 48.294C48.9153 48.503 48.8914 48.9447 48.8914 49.6192ZM52.2231 57.2282C52.2231 54.9199 53.0072 53.0176 54.5755 51.5215C56.1437 50.0253 58.2617 49.2772 60.9296 49.2772C63.98 49.2772 66.2844 50.1559 67.8431 51.9133C69.0958 53.3287 69.7221 55.0718 69.7221 57.1427C69.7221 59.4701 68.9452 61.3771 67.3913 62.8637C65.8374 64.3504 63.6883 65.0937 60.9439 65.0937C58.496 65.0937 56.5166 64.4763 55.0058 63.2413C53.1507 61.7119 52.2231 59.7076 52.2231 57.2282ZM58.0753 57.214C58.0753 58.5629 58.3502 59.5603 58.9 60.2063C59.4498 60.8522 60.1407 61.1752 60.9726 61.1752C61.8141 61.1752 62.505 60.857 63.0452 60.2205C63.5855 59.5841 63.8556 58.5629 63.8556 57.157C63.8556 55.846 63.5831 54.87 63.0381 54.2288C62.493 53.5876 61.8189 53.267 61.0157 53.267C60.1646 53.267 59.4618 53.5923 58.9072 54.243C58.3526 54.8937 58.0753 55.884 58.0753 57.214ZM72.1933 49.6192H77.6438V51.8278C78.4279 50.9064 79.2191 50.2509 80.0176 49.8614C80.816 49.472 81.7794 49.2772 82.9078 49.2772C84.1222 49.2772 85.0832 49.491 85.7908 49.9184C86.4984 50.3459 87.0769 50.9824 87.5264 51.8278C88.4443 50.8399 89.281 50.1678 90.0364 49.8116C90.7919 49.4553 91.7242 49.2772 92.8334 49.2772C94.4686 49.2772 95.7451 49.7593 96.6631 50.7235C97.5811 51.6877 98.0401 53.1957 98.0401 55.2476V64.7517H92.188V56.131C92.188 55.4471 92.0541 54.9389 91.7863 54.6064C91.3943 54.0839 90.9066 53.8227 90.3233 53.8227C89.6348 53.8227 89.0802 54.0697 88.6595 54.5636C88.2387 55.0576 88.0284 55.8508 88.0284 56.9432V64.7517H82.1763V56.416C82.1763 55.7511 82.138 55.2998 82.0615 55.0624C81.9372 54.6824 81.7221 54.376 81.4161 54.1433C81.1101 53.9106 80.7515 53.7942 80.3403 53.7942C79.671 53.7942 79.1211 54.0459 78.6908 54.5494C78.2605 55.0529 78.0454 55.8793 78.0454 57.0287V64.7517H72.1933V49.6192ZM106.464 54.5209L100.884 53.9367C101.095 52.9677 101.398 52.2054 101.795 51.6497C102.192 51.094 102.763 50.6119 103.509 50.2034C104.045 49.9089 104.781 49.681 105.718 49.5195C106.655 49.358 107.669 49.2772 108.759 49.2772C110.509 49.2772 111.914 49.3746 112.976 49.5693C114.037 49.7641 114.922 50.1702 115.629 50.7876C116.126 51.2151 116.518 51.8207 116.805 52.6044C117.092 53.3881 117.236 54.1362 117.236 54.8486V61.5314C117.236 62.2439 117.281 62.802 117.372 63.2057C117.463 63.6094 117.661 64.1248 117.967 64.7517H112.488C112.268 64.3623 112.125 64.0654 112.058 63.8612C111.991 63.6569 111.924 63.3363 111.857 62.8993C111.092 63.6308 110.332 64.1533 109.576 64.4667C108.544 64.8847 107.343 65.0937 105.976 65.0937C104.159 65.0937 102.78 64.6757 101.838 63.8398C100.896 63.0038 100.425 61.9732 100.425 60.7477C100.425 59.5983 100.765 58.6531 101.444 57.9122C102.074 57.2241 103.199 56.6999 104.819 56.3395L107.909 55.7018C108.619 55.5486 109.136 55.4281 109.462 55.3402C110.112 55.1645 110.8 54.9341 111.527 54.6491C111.527 53.9367 111.379 53.438 111.082 53.153C110.786 52.868 110.265 52.7255 109.519 52.7255C108.563 52.7255 107.846 52.8775 107.367 53.1815C106.994 53.419 106.693 53.8654 106.464 54.5209ZM111.527 57.5702C110.925 57.7839 110.303 57.979 109.663 58.1553L109.017 58.3254C107.831 58.6389 107.081 58.9476 106.765 59.2516C106.44 59.5651 106.277 59.9213 106.277 60.3203C106.277 60.7762 106.437 61.1491 106.758 61.4388C107.078 61.7285 107.549 61.8734 108.171 61.8734C108.821 61.8734 109.426 61.7167 109.985 61.4032C110.544 61.0897 110.941 60.7074 111.176 60.2561C111.41 59.8049 111.527 59.2183 111.527 58.4964V57.5702ZM120.352 49.6192H125.788V52.0843C126.601 51.0774 127.424 50.3578 128.255 49.9256C129.087 49.4933 130.101 49.2772 131.296 49.2772C132.912 49.2772 134.177 49.7546 135.09 50.7093C136.003 51.664 136.46 53.1387 136.46 55.1336V64.7517H130.593V56.4303C130.593 55.4803 130.417 54.8082 130.063 54.414C129.709 54.0198 129.212 53.8227 128.571 53.8227C127.863 53.8227 127.29 54.0887 126.85 54.6206C126.41 55.1526 126.19 56.1073 126.19 57.4847V64.7517H120.352V49.6192ZM139.777 43.8626H145.615V47.8096H139.777V43.8626ZM139.777 49.6192H145.615V64.7517H139.777V49.6192ZM154.283 54.5209L148.703 53.9367C148.913 52.9677 149.217 52.2054 149.614 51.6497C150.011 51.094 150.582 50.6119 151.328 50.2034C151.863 49.9089 152.6 49.681 153.537 49.5195C154.474 49.358 155.487 49.2772 156.578 49.2772C158.327 49.2772 159.733 49.3746 160.795 49.5693C161.856 49.7641 162.74 50.1702 163.448 50.7876C163.945 51.2151 164.337 51.8207 164.624 52.6044C164.911 53.3881 165.055 54.1362 165.055 54.8486V61.5314C165.055 62.2439 165.1 62.802 165.191 63.2057C165.282 63.6094 165.48 64.1248 165.786 64.7517H160.307L160.112 64.3931C160 64.1746 159.921 63.9973 159.877 63.8612C159.81 63.6569 159.743 63.3363 159.676 62.8993C158.911 63.6308 158.151 64.1533 157.395 64.4667C156.362 64.8847 155.162 65.0937 153.795 65.0937C151.978 65.0937 150.599 64.6757 149.657 63.8398C148.715 63.0038 148.244 61.9732 148.244 60.7477C148.244 59.5983 148.584 58.6531 149.262 57.9122C149.893 57.2241 151.018 56.6999 152.638 56.3395L155.728 55.7018C156.438 55.5486 156.955 55.4281 157.28 55.3402C157.931 55.1645 158.619 54.9341 159.346 54.6491C159.346 53.9367 159.198 53.438 158.901 53.153C158.605 52.868 158.084 52.7255 157.338 52.7255C156.382 52.7255 155.664 52.8775 155.186 53.1815C154.813 53.419 154.512 53.8654 154.283 54.5209ZM159.346 57.5702C158.743 57.7839 158.122 57.979 157.482 58.1553L156.836 58.3254C155.65 58.6389 154.899 58.9476 154.584 59.2516C154.259 59.5651 154.096 59.9213 154.096 60.3203C154.096 60.7762 154.256 61.1491 154.577 61.4388C154.897 61.7285 155.368 61.8734 155.989 61.8734C156.64 61.8734 157.245 61.7167 157.804 61.4032C158.363 61.0897 158.76 60.7074 158.994 60.2561C159.229 59.8049 159.346 59.2183 159.346 58.4964V57.5702ZM168.171 43.8626H174.138V54.6349L178.498 49.6192H185.684L180.22 54.9199L186 64.7517H179.416L176.333 58.6816L174.138 60.819V64.7517H168.171V43.8626Z" fill="white"/>
</svg>
