<svg width="20" height="20" viewBox="0 0 20 20" fill="none" xmlns="http://www.w3.org/2000/svg">
<g clip-path="url(#clip0_5314_9076)">
<path fill-rule="evenodd" clip-rule="evenodd" d="M9.43945 0.601829C6.96261 0.737649 4.60099 1.88913 2.94169 3.77005C1.04505 5.91999 0.242588 8.75351 0.721368 11.61C1.06867 13.6821 2.17127 15.6529 3.76945 17.0584C4.96927 18.1135 6.38623 18.839 7.92945 19.1881C9.26721 19.4908 10.7651 19.4873 12.1087 19.1784C13.867 18.774 15.4483 17.8855 16.7207 16.5869C17.7526 15.5337 18.4309 14.426 18.9356 12.97C19.2884 11.9523 19.4603 10.6919 19.4015 9.55505C19.333 8.23177 19.0405 7.07391 18.4807 5.91005C17.5632 4.00217 15.9973 2.43633 14.0894 1.51875C12.63 0.816849 11.0826 0.511729 9.43945 0.601829ZM9.37945 1.86169C8.11639 1.96893 6.99843 2.31517 5.90945 2.93635C4.86473 3.53231 3.86909 4.47363 3.18221 5.51481C1.93931 7.39885 1.53547 9.72875 2.07031 11.93C2.28133 12.7986 2.64169 13.6419 3.12583 14.4C3.31503 14.6963 3.41213 14.8276 3.77495 15.2774C3.79703 15.3048 4.56767 14.5418 9.54995 9.55955C12.7122 6.39735 15.299 3.80557 15.2984 3.80007C15.2969 3.78547 15.0863 3.61413 14.8739 3.45469C14.021 2.81435 12.9845 2.32725 11.9294 2.07091C11.2682 1.91025 10.6481 1.83851 9.95945 1.84301C9.74495 1.84441 9.48395 1.85281 9.37945 1.86169ZM10.4399 10.4495C5.45769 15.4318 4.69467 16.2025 4.72207 16.2245C5.17191 16.5874 5.30317 16.6845 5.59945 16.8737C6.91795 17.7156 8.43725 18.1596 9.99945 18.1596C11.4375 18.1596 12.8146 17.7906 14.0894 17.0637C15.13 16.4704 16.1322 15.5229 16.8167 14.4853C17.8814 12.8714 18.3318 10.9396 18.0979 8.99005C17.9342 7.62453 17.3734 6.22921 16.5448 5.12559C16.3854 4.91321 16.214 4.70263 16.1994 4.70109C16.1939 4.70053 13.6021 7.28733 10.4399 10.4495Z" fill="#484E5B"/>
</g>
<defs>
<clipPath id="clip0_5314_9076">
<rect width="20" height="20" fill="white"/>
</clipPath>
</defs>
</svg>
