<svg width="20" height="20" viewBox="0 0 20 20" fill="none" xmlns="http://www.w3.org/2000/svg">
<path d="M10 13.7508C10.5178 13.7508 10.9375 14.1705 10.9375 14.6883C10.9373 15.2058 10.5176 15.6258 10 15.6258C9.48244 15.6257 9.06278 15.2058 9.06253 14.6883C9.06253 14.1705 9.48228 13.7508 10 13.7508Z" fill="#FF9D0A"/>
<path d="M10 4.37575C10.3452 4.37575 10.625 4.65557 10.625 5.00075V11.667C10.6248 12.012 10.345 12.292 10 12.292C9.65502 12.292 9.37528 12.012 9.37503 11.667V5.00075C9.37503 4.65558 9.65486 4.37577 10 4.37575Z" fill="#FF9D0A"/>
<path fill-rule="evenodd" clip-rule="evenodd" d="M10 0.000751998C12.6319 -0.0228461 15.2391 0.509191 17.6514 1.56203L17.6624 1.56691C17.9888 1.71645 18.2653 1.95751 18.4583 2.26027C18.6507 2.56241 18.752 2.91406 18.75 3.27224V9.61501C18.75 11.7467 18.1038 13.8282 16.897 15.5855C15.6902 17.3427 13.9793 18.6933 11.9898 19.4588L11.1219 19.792C10.7608 19.9308 10.3804 20.0008 10 20.0008C9.61971 20.0008 9.23921 19.9308 8.8782 19.792L8.01028 19.4588C6.02076 18.6933 4.30984 17.3427 3.10305 15.5855C1.89633 13.8282 1.25006 11.7467 1.25003 9.61501V3.27224C1.24808 2.91408 1.34937 2.5624 1.54178 2.26027C1.73471 1.95754 2.01133 1.71645 2.33767 1.56691L2.34866 1.56203C4.76092 0.509173 7.36816 -0.0228386 10 0.000751998ZM9.99392 1.25075C7.53825 1.22802 5.10508 1.72307 2.85403 2.70461C2.74829 2.754 2.65922 2.83319 2.59646 2.93166C2.53286 3.03146 2.49924 3.14779 2.50003 3.26613V9.61501C2.50006 11.4942 3.06949 13.3296 4.13333 14.8787C5.19713 16.4276 6.70576 17.6183 8.4595 18.293L9.32742 18.6262C9.54389 18.7094 9.77197 18.7508 10 18.7508C10.2281 18.7508 10.4562 18.7094 10.6726 18.6262L11.5406 18.293C13.2943 17.6183 14.8029 16.4276 15.8667 14.8787C16.9306 13.3296 17.5 11.4942 17.5 9.61501V3.26613C17.5008 3.14779 17.4672 3.03146 17.4036 2.93166C17.3408 2.83319 17.2518 2.75399 17.146 2.70461C14.8949 1.72305 12.4618 1.22801 10.0061 1.25075H9.99392Z" fill="#FF9D0A"/>
</svg>
