<svg width="20" height="20" viewBox="0 0 20 20" fill="none" xmlns="http://www.w3.org/2000/svg">
<path fill-rule="evenodd" clip-rule="evenodd" d="M9.61769 0.652401C9.09266 0.768894 8.64991 1.07926 8.37611 1.52269C8.28828 1.66498 0.324076 16.3581 0.186763 16.6312C-0.055856 17.1138 -0.0626568 17.7593 0.169676 18.25C0.448701 18.8392 0.933004 19.2139 1.58422 19.3443C1.78844 19.3852 18.212 19.3852 18.4162 19.3443C19.065 19.2144 19.5524 18.8377 19.8297 18.2523C20.0625 17.7608 20.0561 17.1137 19.8138 16.6312C19.6801 16.365 11.7127 1.66659 11.6241 1.52269C11.3487 1.07546 10.9033 0.76507 10.3761 0.65291C10.2022 0.615921 9.78333 0.615644 9.61769 0.652401ZM9.8116 1.98021C9.73772 2.00571 9.66497 2.05238 9.60572 2.1123C9.53261 2.18622 8.69233 3.72177 5.45087 9.70491C3.2161 13.8299 1.37448 17.2419 1.35842 17.2872C1.28635 17.4903 1.35278 17.73 1.52372 17.8836C1.72011 18.0602 0.871435 18.0441 10.0002 18.0441C19.129 18.0441 18.2804 18.0602 18.4767 17.8836C18.6477 17.73 18.7141 17.4903 18.642 17.2872C18.626 17.2419 16.7846 13.8299 14.5501 9.70491C10.0893 1.46998 10.4157 2.04607 10.1699 1.97311C10.0247 1.92998 9.95297 1.93141 9.8116 1.98021ZM9.84581 6.23177C9.71109 6.2656 9.60674 6.33029 9.50567 6.44266C9.3284 6.63979 9.34134 6.38266 9.34187 9.69276C9.34234 12.6047 9.34281 12.6379 9.38544 12.7319C9.44541 12.8641 9.51867 12.9546 9.62364 13.0263C9.74671 13.1104 9.85253 13.1411 10.0158 13.1401C10.2709 13.1387 10.4971 12.9869 10.6093 12.7417L10.6595 12.6321L10.654 9.66004L10.6484 6.68793L10.5988 6.59232C10.5293 6.4583 10.3945 6.32638 10.2741 6.27463C10.154 6.22293 9.95877 6.20341 9.84581 6.23177ZM9.74743 14.337C9.2934 14.4644 8.99305 14.8905 9.02874 15.3564C9.05728 15.7292 9.30296 16.0595 9.65509 16.1984C9.83011 16.2674 10.1704 16.2674 10.3454 16.1984C10.5947 16.1 10.8184 15.8765 10.9166 15.6276C10.9859 15.4521 10.986 15.1122 10.9168 14.937C10.818 14.6866 10.5919 14.4611 10.3459 14.3678C10.1857 14.3069 9.90574 14.2926 9.74743 14.337Z" fill="#F44336"/>
</svg>
