<svg width="24" height="24" viewBox="0 0 24 24" fill="none" xmlns="http://www.w3.org/2000/svg">
<path fill-rule="evenodd" clip-rule="evenodd" d="M11.6775 0.762952C11.6494 0.768612 11.5634 0.786193 11.4863 0.801967C11.285 0.843156 10.9413 0.994342 10.7342 1.13282C10.5966 1.22484 9.37262 2.46661 5.38426 6.56072C2.46481 9.55758 0.1759 11.9273 0.1281 12.0026C-0.180092 12.4877 0.0957992 13.1366 0.656759 13.2459C0.826725 13.2791 1.05538 13.2379 1.19646 13.1488C1.25428 13.1123 3.61896 10.7023 6.45129 7.79332C10.502 3.63299 11.6255 2.49297 11.7157 2.45136C11.8706 2.3799 12.1217 2.3799 12.2766 2.45136C12.3668 2.49297 13.4927 3.63553 17.5537 7.8066C21.1715 11.5224 22.7487 13.1256 22.825 13.1646C23.3979 13.4577 24.0602 13.004 23.9958 12.3625C23.9643 12.0486 24.2514 12.3576 18.6189 6.57555C13.7816 1.6098 13.3698 1.19369 13.177 1.07719C12.9419 0.935178 12.6249 0.814884 12.3785 0.774271C12.2203 0.748174 11.7852 0.741152 11.6775 0.762952ZM3.44305 13.2417C3.18664 13.3681 3.04074 13.5711 2.99717 13.8621C2.95487 14.1446 2.97428 22.5534 3.01751 22.6835C3.08816 22.8961 3.33478 23.1436 3.53972 23.2075C3.62428 23.2339 4.31389 23.241 6.79545 23.241H9.94391L10.0642 23.1839C10.2331 23.1037 10.4244 22.9108 10.4956 22.7487L10.5558 22.6121L10.5685 19.3369L10.5812 16.0616L10.6364 15.9568C10.7096 15.8175 10.836 15.6966 10.9764 15.6314C11.0848 15.581 11.1409 15.578 11.9961 15.5777C12.8925 15.5774 12.9024 15.578 13.0296 15.6389C13.177 15.7094 13.3572 15.9051 13.4037 16.0453C13.4278 16.1178 13.4384 16.9117 13.4486 19.4024L13.462 22.6645L13.5195 22.7752C13.657 23.0395 13.8513 23.1841 14.1282 23.228C14.2463 23.2467 15.2951 23.2534 17.3498 23.2484L20.3963 23.241L20.5289 23.1794C20.6965 23.1014 20.8946 22.8884 20.959 22.7169C21.0068 22.5894 21.0081 22.4678 21.0081 18.1971C21.0081 13.9433 21.0066 13.8043 20.9595 13.6788C20.9012 13.5233 20.7477 13.3456 20.5889 13.2496C20.4838 13.1861 20.4484 13.1794 20.2178 13.1794C20.0057 13.1794 19.9457 13.1889 19.8609 13.2357C19.7236 13.3114 19.5637 13.4819 19.4889 13.6324L19.4275 13.7558L19.4208 17.6796L19.4141 21.6034H17.2227H15.0314L15.0235 18.7146C15.0174 16.4499 15.0086 15.8032 14.9829 15.721C14.8219 15.2064 14.6652 14.9331 14.3445 14.6074C14.0668 14.3255 13.7949 14.1507 13.4672 14.0436C13.1251 13.9318 12.9824 13.9218 11.8762 13.9326C10.9051 13.942 10.8244 13.9464 10.6577 13.9983C9.77361 14.274 9.12735 15.0073 8.98938 15.8913C8.97214 16.0017 8.96271 17.0371 8.96261 18.8325L8.9624 21.6034H6.77029H4.57818L4.57147 17.6665L4.56477 13.7296L4.50636 13.6172C4.29696 13.2142 3.83206 13.05 3.44305 13.2417Z" fill="#3243AE"/>
</svg>
