<svg width="80" height="96" viewBox="0 0 80 96" fill="none" xmlns="http://www.w3.org/2000/svg">
<path fill-rule="evenodd" clip-rule="evenodd" d="M35.0093 35.9995V59.996H45.0078V35.9995H35.0093Z" fill="white"/>
<path d="M70.0015 40.1761C70.0015 23.4857 56.5455 9.99852 39.9999 9.99852V0C62.1151 0 80 18.011 80 40.1761V55.9917H70.0015V40.1761Z" fill="white" fill-opacity="0.4"/>
<path d="M31.1104 0.996105C13.314 5.05465 0 20.854 0 39.9934H9.99852C9.99852 25.6511 19.9563 13.7951 33.3337 10.7443L31.1104 0.996105Z" fill="white" fill-opacity="0.4"/>
<path d="M9.99852 55.8097V47.9929H0V55.8097C0 77.9749 17.885 95.9858 39.9999 95.9858C59.0607 95.9858 74.9732 82.6066 79.0098 64.728L69.2568 62.526C66.2196 75.9776 54.2534 85.9873 39.9999 85.9873C23.4542 85.9873 9.99852 72.5001 9.99852 55.8097Z" fill="white" fill-opacity="0.4"/>
<path d="M39.9986 17.5864C31.1437 17.5864 23.5055 22.72 19.836 30.141L28.7987 34.5729C30.8565 30.4113 35.111 27.5849 39.9986 27.5849C46.8792 27.5849 52.4996 33.1976 52.4996 40.1741H62.4981C62.4981 27.7229 52.4484 17.5864 39.9986 17.5864Z" fill="white" fill-opacity="0.8"/>
<path d="M52.4996 55.807V47.9901H62.4981V55.807C62.4981 68.2583 52.4484 78.3948 39.9986 78.3948V68.3963C46.8792 68.3963 52.4996 62.7835 52.4996 55.807Z" fill="white" fill-opacity="0.8"/>
<path d="M27.4985 55.807V39.9913H17.5V55.807C17.5 64.6697 22.5874 72.3433 29.9879 76.0396L34.4555 67.0949C30.3313 65.0348 27.4985 60.7562 27.4985 55.807Z" fill="white" fill-opacity="0.8"/>
</svg>
