<svg width="1024" height="1024" viewBox="0 0 1024 1024" fill="none" xmlns="http://www.w3.org/2000/svg">
<g opacity="0.3">
<path d="M725.776 456.293C725.776 349.546 648.535 261.186 547.46 244.198C528.057 240.937 511.987 225.299 511.987 205.624C511.987 185.95 528.017 169.765 547.54 172.204C688.31 189.787 797.025 310.414 797.025 456.293V533.37C797.025 553.045 781.076 568.994 761.401 568.994C741.726 568.994 725.776 553.045 725.776 533.37V456.293Z" fill="#F1F5FD"/>
<path d="M414.488 187.162C315.801 223.073 242.463 311.488 229.127 419.445C226.715 438.972 242.899 454.991 262.574 454.991C282.249 454.991 297.885 438.927 301.104 419.517C313.356 345.621 363.296 284.998 430.562 257.325C448.757 249.839 460.937 231.013 456.562 211.83C452.187 192.648 432.976 180.435 414.488 187.162Z" fill="#F1F5FD"/>
<path d="M298.198 567.698V547.62C298.198 527.945 282.249 511.995 262.574 511.995C242.899 511.995 226.949 527.945 226.949 547.62V567.698C226.949 725.645 354.397 853.99 511.987 853.99C635.364 853.99 740.23 775.326 779.975 665.423C786.666 646.921 774.411 627.736 755.22 623.403C736.028 619.07 717.227 631.29 709.777 649.5C677.752 727.774 601.15 782.741 511.987 782.741C394.083 782.741 298.198 686.632 298.198 567.698Z" fill="#F1F5FD"/>
</g>
</svg>
