<svg width="1024" height="1024" viewBox="0 0 1024 1024" fill="none" xmlns="http://www.w3.org/2000/svg">
<g opacity="0.3">
<path d="M725.776 456.293C725.776 337.358 629.89 241.249 511.987 241.249V170C669.578 170 797.025 298.346 797.025 456.293V568.994H725.776V456.293Z" fill="#F1F5FD"/>
<path d="M448.641 177.098C321.824 206.019 226.949 318.605 226.949 454.991H298.198C298.198 352.788 369.157 268.303 464.484 246.564L448.641 177.098Z" fill="#F1F5FD"/>
<path d="M298.198 567.698V511.995H226.949V567.698C226.949 725.645 354.397 853.99 511.987 853.99C647.813 853.99 761.204 758.651 789.969 631.249L720.47 615.557C698.827 711.412 613.556 782.741 511.987 782.741C394.083 782.741 298.198 686.632 298.198 567.698Z" fill="#F1F5FD"/>
</g>
</svg>
