<svg width="1024" height="1024" viewBox="0 0 1024 1024" fill="none" xmlns="http://www.w3.org/2000/svg">
<g opacity="0.6">
<path d="M511.983 295.359C448.884 295.359 394.454 331.941 368.306 384.823L432.173 416.404C446.837 386.748 477.154 366.608 511.983 366.608C561.014 366.608 601.064 406.604 601.064 456.318H672.313C672.313 367.591 600.7 295.359 511.983 295.359Z" fill="#F1F5FD"/>
<path d="M601.064 567.717V512.015H672.313V567.717C672.313 656.445 600.7 728.677 511.983 728.677V657.428C561.014 657.428 601.064 617.432 601.064 567.717Z" fill="#F1F5FD"/>
<path d="M422.908 567.717V455.016H351.659V567.717C351.659 630.872 387.912 685.554 440.647 711.894L472.483 648.154C443.094 633.474 422.908 602.985 422.908 567.717Z" fill="#F1F5FD"/>
</g>
</svg>
