<svg width="1024" height="1024" viewBox="0 0 1024 1024" fill="none" xmlns="http://www.w3.org/2000/svg">
<g opacity="0.6">
<path d="M511.983 295.359C461.652 295.359 416.838 318.634 387.492 354.89C375.113 370.183 382.603 391.893 400.239 400.613C417.876 409.334 438.945 401.289 453.794 388.381C469.439 374.782 489.796 366.608 511.983 366.608C548.861 366.608 580.658 389.234 594.155 421.602C601.728 439.761 617.014 456.318 636.689 456.318C656.364 456.318 672.72 440.169 668.431 420.967C652.396 349.178 588.561 295.359 511.983 295.359Z" fill="#F1F5FD"/>
<path d="M601.064 567.717V547.639C601.064 527.964 617.014 512.015 636.689 512.015C656.364 512.015 672.313 527.964 672.313 547.639V567.717C672.313 644.294 618.971 708.585 547.328 724.757C528.136 729.089 511.983 712.728 511.983 693.053C511.983 673.378 528.559 658.083 546.66 650.371C578.57 636.774 601.064 604.975 601.064 567.717Z" fill="#F1F5FD"/>
<path d="M422.908 567.717V490.64C422.908 470.965 406.959 455.016 387.284 455.016C367.609 455.016 351.659 470.965 351.659 490.64V567.717C351.659 618.084 374.716 663.061 410.803 692.571C426.034 705.026 447.774 697.625 456.565 680.024C465.356 662.423 457.404 641.304 444.584 626.379C431.076 610.652 422.908 590.151 422.908 567.717Z" fill="#F1F5FD"/>
</g>
</svg>
