<svg width="302" height="302" viewBox="0 0 302 302" fill="none" xmlns="http://www.w3.org/2000/svg">
<rect x="73.5012" y="73.3265" width="154.998" height="155.347" rx="22.5" fill="white" fill-opacity="0.4" stroke="white" stroke-width="3" stroke-dasharray="63 85"/>
<path d="M148.858 106.883C156.133 105.97 166.216 109.015 172.415 112.857C181.321 118.361 187.655 127.197 190.006 137.397C193.348 151.75 189.127 172.675 183.54 186.274C182.738 188.227 180.808 194.013 178.621 194.486C175.091 193.656 178.645 188.693 179.521 186.671C185.263 173.425 187.54 160.052 187.462 145.672C187.065 137.418 184.773 130.385 179.578 123.85C173.63 116.435 165.012 111.644 155.571 110.507C140.938 108.755 126.599 115.557 118.703 127.996C117.542 129.808 114.861 135.728 114.036 136.385C112.769 136.744 111.983 136.247 111.501 135.047C111.369 132.353 117.092 123.734 119.116 121.476C127.321 112.326 136.736 107.73 148.858 106.883Z" fill="#2F40AB"/>
<path d="M147.718 122.567C151.226 121.995 155.857 122.685 159.164 123.896C165.342 126.114 170.379 130.704 173.159 136.648C178.076 147.254 174.153 165.701 170.671 176.626C170.227 178.021 168.99 180.217 167.217 179.431C166.741 178.827 166.478 177.674 166.726 176.943C170.071 167.078 174.171 149.299 170.41 139.38C168.45 134.133 164.444 129.905 159.309 127.662C153.493 125.068 147.669 125.398 141.83 127.642C133.193 131.717 128.346 139.213 128.39 148.833C128.398 150.617 128.093 153.503 127.839 155.211C127.156 159.836 125.617 164.294 123.301 168.355C120.628 173.057 116.11 178.238 111.454 181.328C110.695 181.99 109.006 180.935 109.138 180.198C109.985 177.077 114.386 174.635 116.587 171.868C123.077 163.711 124.546 156.978 124.801 146.837C125.119 134.201 135.341 124.264 147.718 122.567Z" fill="#2F40AB"/>
<path d="M149.048 138.046C158.773 137.082 160.807 146.372 159.539 153.668C159.198 155.627 159.112 157.857 158.801 159.891C156.639 173.134 150.721 185.479 141.749 195.461C140.582 196.775 136.422 201.671 134.797 201.399C134.018 200.864 133.807 200.751 133.337 199.947C133.318 199.019 133.844 198.621 134.514 197.959C139.881 192.658 144.122 187.334 147.856 180.743C150.762 175.441 152.942 169.773 154.337 163.89C155.295 159.854 157.387 147.645 155.093 144.047C154.282 142.797 153.014 141.913 151.56 141.585C149.952 141.23 148.29 141.555 146.873 142.49C143.16 144.851 144.22 149.438 143.881 153.198C143.587 156.934 142.889 160.607 141.86 164.217C141.429 165.729 140.717 169.818 138.315 168.828C137.73 168.587 137.485 168.209 137.229 167.663C137.222 166.422 139.518 159.817 139.658 157.703C139.854 155.988 140.394 153.593 140.35 151.885C140.165 144.761 141.26 139.917 149.048 138.046Z" fill="#2F40AB"/>
<path d="M152.599 130.572C152.915 130.567 153.231 130.572 153.547 130.59C156.894 130.774 161.205 133.442 163.356 135.925C167.639 140.871 167.871 146.202 167.493 152.384C166.677 167.693 161.386 182.426 152.276 194.76C150.317 197.422 147.524 200.902 145.085 203.058C144.158 203.127 143.413 202.651 142.884 201.949C142.566 200.035 145.814 197.417 146.973 195.916C148.393 194.077 149.747 192.249 151.05 190.321C158.552 179.301 162.957 166.47 163.805 153.168C164.29 145.755 164.083 138.721 156.252 134.893C154.369 133.972 149.952 133.985 152.599 130.572Z" fill="#2F40AB"/>
<path d="M173.465 104.945C176.708 104.891 184.378 112.061 186.512 114.328C195.666 124.047 199.691 137.67 198.904 150.847C198.616 155.657 197.242 174.607 194.115 177.495C190.348 177.339 191.984 174.087 192.544 171.607C194.835 161.472 196.436 148.378 194.551 138.127C192.621 127.846 187.085 118.59 178.938 112.025C177.361 110.756 172.635 108.352 172.334 106.675C172.6 105.781 172.801 105.623 173.465 104.945Z" fill="#2F40AB"/>
<path d="M149.928 99.0321C152.708 98.8156 166.539 99.6527 167.219 102.842C167.1 103.572 166.44 104.567 165.67 104.408C157.957 102.815 151.689 101.718 143.694 103.018C130.9 105.098 120.587 112.082 113.069 122.451C111.117 125.328 109.744 128.156 108.25 131.285C107.947 131.92 107.276 132.996 106.552 133.198C106.07 133.334 105.552 133.225 105.165 132.906C102.22 130.519 112.306 117.46 114.061 115.538C123.796 104.882 135.617 99.7281 149.928 99.0321Z" fill="#2F40AB"/>
<path d="M142.801 115.582C143.441 115.593 144.052 116.048 144.443 116.518C144.919 118.614 142.713 119.199 141.172 119.677C129.767 123.082 120.452 135.337 120.603 147.333C120.73 157.447 116.601 168.67 107.72 174.389C106.868 174.36 106.15 174.071 105.65 173.369C105.365 171.386 108.162 169.518 109.514 168.136C110.778 166.825 111.893 165.379 112.839 163.824C117.604 156.042 116.237 152.031 117.19 144.198C117.764 139.512 119.326 135.001 121.772 130.963C126.457 123.245 134.024 117.711 142.801 115.582Z" fill="#2F40AB"/>
<path d="M149.403 145.788C152.332 145.675 151.996 148.038 151.902 150.102C151.677 155.024 151.08 159.894 149.819 164.663C146.885 175.602 141.073 185.554 132.986 193.486C131.404 195.058 128.915 197.409 127.049 198.492C126.352 198.459 125.044 197.91 125.036 197.174C125.015 195.293 128.284 193.086 129.549 191.877C137.647 184.267 143.452 174.543 146.306 163.806C147.581 158.967 148.174 154.39 148.21 149.382C148.224 147.498 148.072 147.09 149.403 145.788Z" fill="#2F40AB"/>
<path d="M180.98 144.689C181.383 144.738 182.686 144.99 182.886 145.392C183.68 146.908 183.289 149.294 183.226 150.977C182.671 166.053 178.679 180.892 171.178 194.013C169.99 196.091 168.613 199.026 166.694 200.508C162.248 199.222 166.158 195.706 167.652 193.08C169.491 189.799 171.149 186.42 172.621 182.958C176.292 174.25 178.556 165.014 179.33 155.596C179.613 152.362 179.477 149.174 179.745 145.953C179.793 145.38 180.5 144.993 180.98 144.689Z" fill="#2F40AB"/>
<path d="M133.929 149.576C135.181 149.841 136.276 150.441 136.172 151.945C135.185 166.225 127.452 180.032 115.308 188.079C114.86 188.023 113.935 187.552 113.676 187.228C112.24 185.434 116.722 182.686 117.978 181.533C119.302 180.316 120.565 179.034 121.761 177.691C126.842 171.974 130.215 164.948 131.826 157.47C132.138 156.024 132.163 154.077 132.405 152.579C132.724 150.614 132.323 150.825 133.929 149.576Z" fill="#2F40AB"/>
<path d="M148.779 114.674C149.11 114.648 149.442 114.627 149.775 114.612C163.638 113.972 178.187 123.407 181.798 137.511C181.96 138.145 181.255 138.805 180.84 139.235C178.661 139.85 178.296 137.902 177.701 136.324C173.736 125.806 163.174 118.156 151.867 118.136C149.562 118.132 146.293 117.62 148.779 114.674Z" fill="#2F40AB"/>
<path d="M133.319 175.423C134.275 175.401 134.647 175.485 135.323 176.082C137.142 180.149 123.052 192.202 119.833 194.34C118.699 194.512 117.845 193.773 117.522 192.714C117.55 191.611 119.77 190.001 120.664 189.328C123.891 186.9 126.644 184.019 129.167 180.874C130.597 179.091 131.747 177.143 133.319 175.423Z" fill="#2F40AB"/>
<path d="M110.29 147.12C112.594 147.181 112.975 148.832 112.783 150.822C112.264 156.208 109.549 162.789 105.329 166.323C104.504 166.228 102.791 165.633 103.021 164.573C103.419 162.74 105.552 161.091 106.452 159.458C107.908 156.875 108.584 154.053 108.889 151.13C109.073 149.372 108.88 148.28 110.29 147.12Z" fill="#2F40AB"/>
<path d="M163.338 185.27C164.328 185.242 166.289 185.824 165.861 186.975C164.257 191.287 158.816 200.045 155.445 202.836C154.047 202.863 153.321 202.343 153.122 200.937C153.99 199.241 157.123 195.243 158.376 193.296C159.805 191.075 161.898 187.058 163.338 185.27Z" fill="#2F40AB"/>
<path d="M145.578 130.787C146.8 131.018 147.453 131.55 147.551 132.835C147.037 134.294 143.927 135.213 142.339 136.096C138.947 137.982 137.244 143.763 135.582 145.155C133.287 144.807 132.713 143.334 133.717 141.29C136.297 136.04 140.119 132.752 145.578 130.787Z" fill="#2F40AB"/>
</svg>
