<svg width="16" height="16" viewBox="0 0 16 16" fill="none" xmlns="http://www.w3.org/2000/svg">
<path fill-rule="evenodd" clip-rule="evenodd" d="M8.00012 0C3.58192 0 0.000244141 3.58172 0.000244141 8C0.000244141 12.4183 3.58192 16 8.00012 16C12.4184 16 16 12.4183 16 8C16 3.58172 12.4184 0 8.00012 0ZM8.16679 3.33333C8.33161 3.33333 8.49273 3.38221 8.62977 3.47377C8.7668 3.56534 8.87361 3.69549 8.93668 3.84776C8.99976 4.00004 9.01625 4.16759 8.9841 4.32924C8.95194 4.49089 8.87258 4.63938 8.75604 4.75592C8.63949 4.87247 8.49102 4.95183 8.32937 4.98399C8.16772 5.01614 8.00016 4.99964 7.8479 4.93656C7.69563 4.87349 7.56548 4.76668 7.47391 4.62964C7.38234 4.4926 7.33347 4.33148 7.33347 4.16667C7.33347 3.94565 7.42126 3.73369 7.57754 3.57741C7.73382 3.42113 7.94578 3.33333 8.16679 3.33333ZM6.16682 6.77777C6.16682 6.50163 6.39068 6.27777 6.66681 6.27777H7.77791C8.05785 6.27777 8.32634 6.38898 8.52429 6.58694C8.72224 6.78489 8.83345 7.05338 8.83345 7.33333V10.7222H10.0001C10.2762 10.7222 10.5001 10.9461 10.5001 11.2222C10.5001 11.4984 10.2762 11.7222 10.0001 11.7222H6.66681C6.39068 11.7222 6.16682 11.4984 6.16682 11.2222C6.16682 10.9461 6.39068 10.7222 6.66681 10.7222H7.83347V7.33333C7.83347 7.31859 7.82761 7.30446 7.8172 7.29404C7.80678 7.28362 7.79265 7.27777 7.77791 7.27777H6.66681C6.39068 7.27777 6.16682 7.05391 6.16682 6.77777Z" fill="#3243AE"/>
</svg>
