<svg width="20" height="20" viewBox="0 0 20 20" fill="none" xmlns="http://www.w3.org/2000/svg">
<path fill-rule="evenodd" clip-rule="evenodd" d="M3.35307 0.0144088C3.06436 0.0663113 2.75758 0.192536 2.484 0.371983C2.28495 0.502547 1.32659 1.46217 1.11028 1.7475C0.523123 2.52206 0.191968 3.29909 0.0478762 4.24029C-0.00482981 4.58472 -0.0162849 5.25632 0.024881 5.5895C0.096778 6.17142 0.266712 6.7619 0.503804 7.25374C0.667108 7.59249 0.745636 7.7225 1.07736 8.20341C3.57633 11.8262 6.64129 15.0481 10.1349 17.725C10.9405 18.3423 12.0891 19.1534 12.4238 19.3414C12.9547 19.6397 13.5055 19.8324 14.1622 19.9496C14.5246 20.0143 15.4043 20.0193 15.7668 19.9588C16.7551 19.7937 17.5938 19.4207 18.3489 18.8104C18.6154 18.595 19.4963 17.6978 19.6092 17.5267C20.1232 16.7482 20.1306 15.8229 19.629 15.0528C19.5304 14.9015 19.2704 14.6309 18.0322 13.3914C17.2187 12.577 16.4957 11.8679 16.4256 11.8155C16.035 11.5236 15.5827 11.3729 15.0973 11.3729C14.5405 11.3729 14.071 11.5553 13.6089 11.9512C13.382 12.1456 13.2681 12.2093 13.082 12.246C12.9154 12.2788 12.7003 12.2478 12.5401 12.168C12.4521 12.1242 11.9834 11.6668 10.1924 9.87649C8.96159 8.64626 7.92298 7.59185 7.88435 7.53335C7.78656 7.38528 7.74393 7.2434 7.74421 7.06691C7.74461 6.7991 7.8017 6.66828 8.03483 6.40092C8.30942 6.086 8.46851 5.79392 8.56506 5.42747C8.61369 5.24292 8.62112 5.17251 8.62112 4.89569C8.62112 4.62148 8.61349 4.54781 8.56693 4.37168C8.49625 4.1043 8.4042 3.8955 8.25875 3.67258C8.16082 3.52246 7.89691 3.24685 6.70443 2.0492C5.91444 1.25579 5.20414 0.554067 5.12599 0.489784C4.88068 0.288003 4.57938 0.135486 4.24795 0.0452738C4.09765 0.00436868 3.51978 -0.0155627 3.35307 0.0144088ZM3.5785 1.33582C3.33905 1.37455 3.26388 1.42992 2.74844 1.94714C2.13342 2.56431 1.95345 2.80108 1.71188 3.31096C1.43708 3.89099 1.33781 4.34322 1.33834 5.01268C1.33883 5.63702 1.42389 6.03639 1.67855 6.61038C1.80058 6.88542 1.9071 7.06151 2.25156 7.55771C5.00122 11.5185 8.51295 15.0301 12.4726 17.7783C13.0283 18.1639 13.2664 18.2982 13.6309 18.4313C14.0945 18.6007 14.4983 18.6723 14.9914 18.6727C15.8604 18.6734 16.6544 18.4097 17.3557 17.8873C17.6341 17.6801 18.4944 16.827 18.5626 16.6907C18.6997 16.4166 18.6997 16.1346 18.5624 15.8611C18.5035 15.7439 15.7417 12.9636 15.5705 12.8493C15.424 12.7514 15.2917 12.7134 15.0973 12.7134C14.8271 12.7134 14.697 12.7711 14.4279 13.0101C14.1437 13.2625 13.8808 13.4098 13.5365 13.5097C12.8784 13.7006 12.1622 13.5669 11.6117 13.1505C11.4941 13.0616 10.6388 12.2188 9.15598 10.731C7.41216 8.98126 6.85709 8.41197 6.77958 8.29364C6.5546 7.95023 6.43257 7.57785 6.41136 7.17008C6.37984 6.56374 6.57416 6.03646 7.0104 5.54447C7.16676 5.36813 7.22626 5.26768 7.26879 5.1084C7.32256 4.90694 7.29574 4.68684 7.19235 4.48089C7.15851 4.4135 6.73132 3.97046 5.74924 2.98429C4.98199 2.2138 4.3088 1.54683 4.25331 1.50214C4.075 1.35856 3.8225 1.29631 3.5785 1.33582Z" fill="white"/>
</svg>
