<svg width="20" height="20" viewBox="0 0 20 20" fill="none" xmlns="http://www.w3.org/2000/svg">
<path fill-rule="evenodd" clip-rule="evenodd" d="M9.34002 0.0209929C8.03726 0.109753 6.84029 0.424937 5.66312 0.989165C2.76957 2.37607 0.690865 5.12254 0.147755 8.27631C-0.313575 10.9552 0.314995 13.6785 1.89883 15.8628C3.42876 17.9727 5.72752 19.4107 8.27602 19.8519C10.1056 20.1686 11.988 19.9749 13.6918 19.2945C16.2557 18.2705 18.2701 16.2562 19.294 13.6922C20.2353 11.335 20.2353 8.665 19.294 6.30788C18.1321 3.39832 15.6997 1.21182 12.681 0.363266C11.6416 0.0710869 10.4286 -0.0531692 9.34002 0.0209929ZM9.40386 1.35225C8.00955 1.47644 6.90109 1.8088 5.75433 2.44651C4.39973 3.19981 3.20408 4.39515 2.44541 5.75459C1.87768 6.77192 1.53609 7.82734 1.38826 9.02112C1.3341 9.4585 1.3341 10.5415 1.38826 10.9789C1.53653 12.1762 1.87144 13.2104 2.44609 14.2455C3.19561 15.5955 4.40541 16.8053 5.75433 17.5536C6.78933 18.1278 7.82611 18.4636 9.02082 18.6116C9.45819 18.6658 10.5412 18.6658 10.9786 18.6116C12.1723 18.4638 13.211 18.1274 14.2451 17.5536C15.5839 16.8109 16.7996 15.5985 17.5409 14.2667C18.1256 13.2163 18.4621 12.1828 18.6112 10.9789C18.6653 10.5415 18.6653 9.4585 18.6112 9.02112C18.4632 7.8264 18.1274 6.7896 17.5532 5.75459C16.8049 4.40564 15.594 3.19475 14.2451 2.4464C13.2169 1.87596 12.1699 1.5356 10.9999 1.39141C10.726 1.35766 9.64184 1.33106 9.40386 1.35225ZM9.44642 5.0647C9.19947 5.10092 9.01329 5.20027 8.83079 5.39325C8.36271 5.88816 8.51818 6.70718 9.13786 7.011C9.4305 7.15449 9.74021 7.15326 10.0392 7.0074C10.3973 6.83278 10.6168 6.48201 10.6168 6.08443C10.6168 5.46419 10.0558 4.97536 9.44642 5.0647ZM8.31858 7.95483C7.93932 8.07704 7.73767 8.47713 7.87299 8.83881C7.92894 8.98837 8.06986 9.13457 8.22878 9.20794C8.34513 9.26168 8.37065 9.26466 8.80802 9.27564L9.26554 9.28713L9.27097 11.5137L9.27637 13.7402L8.81345 13.7491C8.36916 13.7576 8.34565 13.7602 8.23016 13.8134C8.08858 13.8786 7.95769 14.0061 7.88898 14.1456C7.84914 14.2264 7.83984 14.2799 7.84007 14.4263C7.84033 14.5807 7.84865 14.6228 7.89676 14.7136C7.96469 14.8418 8.08252 14.9584 8.21218 15.0257L8.30794 15.0754H9.9997H11.6915L11.7937 15.0232C11.8499 14.9944 11.9371 14.9269 11.9874 14.8731C12.3001 14.5388 12.191 14.0083 11.7692 13.8132C11.652 13.7589 11.6359 13.7572 11.1334 13.749L10.6179 13.7406L10.612 11.3968L10.6062 9.05304L10.5465 8.8828C10.405 8.47913 10.0704 8.14467 9.66986 8.00656C9.50266 7.94891 9.48956 7.94776 8.9357 7.94276C8.62554 7.93997 8.34784 7.9454 8.31858 7.95483Z" fill="#6E88E6"/>
</svg>
