<svg width="20" height="20" viewBox="0 0 20 20" fill="none" xmlns="http://www.w3.org/2000/svg">
<path fill-rule="evenodd" clip-rule="evenodd" d="M5.49215 0.0130395C5.30379 0.0603499 5.14309 0.190894 5.0483 0.373551L4.99871 0.469149L4.99281 1.47165L4.9869 2.47418L3.29377 2.48274C1.43709 2.49211 1.50386 2.48769 1.1497 2.62469C0.739379 2.78339 0.425865 3.08074 0.219326 3.50704C0.108889 3.73501 0.0515251 3.93386 0.0190098 4.20158C0.00144603 4.34606 -0.00314139 6.28387 0.00195572 11.3992C0.00860319 18.0644 0.0107695 18.4067 0.0473412 18.5584C0.134842 18.9216 0.292002 19.2015 0.548365 19.4507C0.795808 19.6912 1.06583 19.8365 1.46572 19.9442L1.64312 19.992L9.89405 19.9985C15.4596 20.0029 18.2072 19.9978 18.3361 19.9831C18.5888 19.9541 18.7486 19.9113 18.9395 19.8212C19.4427 19.5838 19.7609 19.1845 19.9373 18.5691L19.9921 18.3779L19.9985 11.3355C20.0029 6.48342 19.9979 4.23947 19.9824 4.12072C19.9488 3.86212 19.9067 3.71823 19.8028 3.50704C19.526 2.94431 18.9679 2.57877 18.2618 2.49776C18.161 2.48621 17.4082 2.47699 16.5575 2.47688L15.0336 2.47671L15.0335 1.58977C15.0333 0.679146 15.0206 0.49256 14.9496 0.355047C14.8925 0.244663 14.7429 0.107172 14.6195 0.0516399C14.4752 -0.0132606 14.2361 -0.0148115 14.0966 0.0482408C13.9628 0.108659 13.8312 0.232299 13.763 0.36159L13.7063 0.469149L13.7002 1.47293L13.6941 2.47671H10.0001H6.30605L6.30013 1.47293L6.29423 0.469149L6.24466 0.373551C6.17519 0.239543 6.04043 0.107639 5.92016 0.0558887C5.80008 0.00420197 5.60503 -0.0153213 5.49215 0.0130395ZM1.67497 3.85664C1.52489 3.90824 1.43324 4.0118 1.37726 4.19306C1.33691 4.32379 1.33517 4.39407 1.33517 5.89923V7.46905H10.0002H18.6653V5.869C18.6653 4.05911 18.6694 4.11012 18.5137 3.97683C18.3301 3.81963 18.4152 3.82672 16.6338 3.8199L15.0376 3.81381L15.0302 4.48894C15.0228 5.16376 15.0227 5.16414 14.9678 5.28092C14.9014 5.42209 14.7776 5.54978 14.638 5.6211C14.4955 5.69388 14.245 5.69537 14.0864 5.62437C13.9597 5.56763 13.8258 5.43706 13.7558 5.30216C13.7073 5.20856 13.7061 5.1921 13.6999 4.51082L13.6935 3.81508H9.99916H6.30484V4.48049C6.30484 5.26641 6.30125 5.28525 6.11553 5.47384C5.83833 5.7553 5.4546 5.7553 5.17741 5.47384C4.99168 5.28525 4.98809 5.26641 4.98809 4.48049V3.81508L3.38994 3.81578C1.87901 3.81644 1.78541 3.81865 1.67497 3.85664ZM1.33517 13.4801C1.33517 16.8894 1.34173 18.2048 1.35917 18.2865C1.39351 18.4475 1.50949 18.5596 1.70379 18.6197L1.84936 18.6647H10.0305C19.0502 18.6647 18.3511 18.6756 18.4896 18.5325C18.5266 18.4942 18.5789 18.415 18.6058 18.3566L18.6547 18.2504L18.6602 13.5183L18.6658 8.78618H10.0005H1.33517V13.4801Z" fill="#7C8192"/>
</svg>
