<svg width="20" height="20" viewBox="0 0 20 20" fill="none" xmlns="http://www.w3.org/2000/svg">
<path fill-rule="evenodd" clip-rule="evenodd" d="M9.56459 0.0110835C7.9821 0.0707526 6.43612 0.515495 5.02085 1.31821C4.21465 1.77548 3.29058 2.51229 2.65525 3.20453C1.65223 4.29731 0.910753 5.56373 0.468254 6.93989C0.27599 7.5378 0.119622 8.27037 0.0463325 8.91674C-0.0154442 9.46149 -0.0154442 10.5434 0.0463325 11.0882C0.178815 12.2564 0.49955 13.359 1.00713 14.3911C1.25261 14.8902 1.35899 15.0754 1.66898 15.5433C2.40022 16.6471 3.34425 17.5909 4.4543 18.328C4.92123 18.6381 5.10579 18.7442 5.60816 18.9913C7.10832 19.7292 8.67393 20.0548 10.423 19.9925C11.7948 19.9437 13.1352 19.6047 14.3822 18.9913C14.8845 18.7442 15.0691 18.6381 15.536 18.328C16.647 17.5902 17.5842 16.6531 18.3209 15.5433C18.631 15.0761 18.7371 14.8915 18.984 14.3895C19.722 12.8893 20.0475 11.3237 19.9852 9.57462C19.9364 8.20284 19.5974 6.86245 18.984 5.61545C18.7371 5.11337 18.631 4.92877 18.3209 4.46159C17.5842 3.35181 16.647 2.41466 15.536 1.67688C15.0691 1.36679 14.8845 1.26069 14.3822 1.01358C13.1585 0.41168 11.7812 0.0582431 10.5051 0.0186525C10.2932 0.0120806 10.0892 0.0041262 10.0518 0.000998845C10.0144 -0.00215118 9.79518 0.00240391 9.56459 0.0110835ZM9.60991 1.42896C8.42564 1.48273 7.29519 1.77272 6.22194 2.29804C5.32699 2.73608 4.6465 3.22349 3.93135 3.93864C2.91999 4.94998 2.23877 6.07508 1.79636 7.46476C1.54087 8.26731 1.42074 9.08433 1.42158 10.0138C1.42278 11.3767 1.69588 12.5584 2.29098 13.7757C2.52241 14.249 2.71957 14.5833 2.99135 14.9631C4.28327 16.7686 6.16624 17.9903 8.31818 18.4194C9.39984 18.6351 10.5905 18.6351 11.6722 18.4194C13.5393 18.0471 15.2198 17.0697 16.4808 15.6226C18.4848 13.3228 19.1059 10.0965 18.1033 7.19393C17.5365 5.55331 16.4931 4.13539 15.0828 3.08956C13.5284 1.93686 11.5624 1.34032 9.60991 1.42896ZM9.8305 5.99196C9.68669 6.02806 9.57553 6.09708 9.46732 6.21744C9.28483 6.42043 9.29335 6.3165 9.29192 8.3544L9.29065 10.1623L9.34953 10.2935C9.40237 10.4113 9.62947 10.6456 11.5657 12.5806C13.9749 14.9881 13.8201 14.8517 14.1423 14.8517C14.4292 14.8517 14.6484 14.7168 14.7758 14.4618C14.8346 14.344 14.8448 14.2983 14.8446 14.1516C14.8442 13.8279 14.9671 13.9685 12.7138 11.7134L10.6985 9.69652L10.6924 8.08751L10.6864 6.47851L10.6335 6.37653C10.5593 6.23358 10.4155 6.09287 10.2872 6.03766C10.1591 5.98253 9.95095 5.9617 9.8305 5.99196Z" fill="#7C8192"/>
</svg>
