<svg width="20" height="20" viewBox="0 0 20 20" fill="none" xmlns="http://www.w3.org/2000/svg">
<path d="M10 13.75C10.5178 13.75 10.9375 14.1697 10.9375 14.6875C10.9375 15.2053 10.5178 15.625 10 15.625C9.48224 15.625 9.0625 15.2053 9.0625 14.6875C9.0625 14.1697 9.48224 13.75 10 13.75Z" fill="#FF9D0A"/>
<path d="M10 4.375C10.3452 4.375 10.625 4.65482 10.625 5V11.6663C10.625 12.0114 10.3452 12.2913 10 12.2913C9.65482 12.2913 9.375 12.0114 9.375 11.6663V5C9.375 4.65482 9.65482 4.375 10 4.375Z" fill="#FF9D0A"/>
<path fill-rule="evenodd" clip-rule="evenodd" d="M10 0C15.5228 0 20 4.47716 20 10C20 15.5228 15.5228 20 10 20C4.47716 20 0 15.5228 0 10C0 4.47716 4.47716 0 10 0ZM10 1.25C5.16751 1.25 1.25 5.16751 1.25 10C1.25 14.8325 5.16751 18.75 10 18.75C14.8325 18.75 18.75 14.8325 18.75 10C18.75 5.16751 14.8325 1.25 10 1.25Z" fill="#FF9D0A"/>
</svg>
