<svg width="24" height="24" viewBox="0 0 24 24" fill="none" xmlns="http://www.w3.org/2000/svg">
<path fill-rule="evenodd" clip-rule="evenodd" d="M11.7966 0.0183046C11.5867 0.0866285 11.3748 0.257642 11.2865 0.429982C11.2611 0.479491 11.2278 0.587713 11.2125 0.670466C11.193 0.775986 11.1846 2.36933 11.1846 6.00429V11.1876H6.00073C2.36536 11.1876 0.771831 11.1959 0.6663 11.2154C0.396772 11.2653 0.203379 11.4098 0.0726052 11.6593C-0.0235434 11.8426 -0.0242828 12.1346 0.070897 12.3349C0.191574 12.5889 0.388868 12.7401 0.6663 12.7914C0.771831 12.8109 2.36536 12.8192 6.00073 12.8192H11.1846V18.0026C11.1846 21.6375 11.193 23.2309 11.2125 23.3364C11.2473 23.525 11.3056 23.6396 11.4307 23.766C11.7416 24.08 12.2595 24.08 12.5704 23.766C12.6955 23.6396 12.7538 23.525 12.7886 23.3364C12.8081 23.2309 12.8164 21.6375 12.8164 18.0026V12.8192H18.0004C21.6357 12.8192 23.2293 12.8109 23.3348 12.7914C23.5234 12.7566 23.638 12.6983 23.7645 12.5732C24.0785 12.2623 24.0785 11.7445 23.7645 11.4337C23.638 11.3085 23.5234 11.2503 23.3348 11.2154C23.2293 11.1959 21.6357 11.1876 18.0004 11.1876H12.8164V6.00429C12.8164 2.36933 12.8081 0.775986 12.7886 0.670466C12.7373 0.392582 12.5851 0.19457 12.332 0.0760994C12.1839 0.00678127 11.9196 -0.0217465 11.7966 0.0183046Z" fill="white"/>
</svg>
