<svg width="20" height="20" viewBox="0 0 20 20" fill="none" xmlns="http://www.w3.org/2000/svg">
<path fill-rule="evenodd" clip-rule="evenodd" d="M17.6297 1.71604L13.9486 1.71605C13.5653 1.71605 13.2544 1.40186 13.2544 1.01428C13.2544 0.626703 13.5653 0.31251 13.9486 0.312509L19.3057 0.3125C19.4899 0.3125 19.6665 0.386436 19.7966 0.518044C19.9269 0.64965 20 0.828149 20 1.01427V6.42947C20 6.81705 19.6891 7.13124 19.3057 7.13124C18.9224 7.13124 18.6115 6.81705 18.6115 6.42947V2.70849L12.2967 9.09176C12.0256 9.36582 11.586 9.36582 11.3149 9.09176C11.0438 8.8177 11.0438 8.37337 11.3149 8.09931L17.6297 1.71604ZM2.20946 4.37103C1.99172 4.37103 1.7829 4.45846 1.62894 4.61409C1.47498 4.76972 1.38849 4.98081 1.38849 5.2009V17.454C1.38849 17.6742 1.47498 17.8853 1.62894 18.0409C1.7829 18.1965 1.99172 18.2839 2.20946 18.2839H15.8464C16.0641 18.2839 16.273 18.1965 16.4269 18.0409C16.5809 17.8853 16.6674 17.6742 16.6674 17.454V9.19989C16.6674 8.81231 16.9783 8.49813 17.3616 8.49813C17.745 8.49813 18.0559 8.81231 18.0559 9.19989V17.454C18.0559 18.0464 17.8231 18.6145 17.4088 19.0333C16.9944 19.4522 16.4324 19.6875 15.8464 19.6875H2.20946C1.62348 19.6875 1.06149 19.4522 0.647135 19.0333C0.232781 18.6145 0 18.0464 0 17.454V5.2009C0 4.60856 0.232781 4.04049 0.647135 3.62164C1.06149 3.20279 1.62348 2.96749 2.20946 2.96749H10.8802C11.2636 2.96749 11.5744 3.28168 11.5744 3.66926C11.5744 4.05684 11.2636 4.37103 10.8802 4.37103H2.20946Z" fill="#3243AE"/>
</svg>
