<svg width="412" height="460" viewBox="0 0 412 460" fill="none" xmlns="http://www.w3.org/2000/svg">
<g clip-path="url(#clip0_2972_35774)">
<path opacity="0.32" d="M435.97 230C435.97 357.026 332.996 460 205.97 460C78.9447 460 -24.0298 357.026 -24.0298 230C-24.0298 102.975 78.9447 0 205.97 0C332.996 0 435.97 102.975 435.97 230Z" fill="url(#paint0_radial_2972_35774)"/>
</g>
<rect x="142.941" y="181.075" width="125.058" height="129.525" rx="8.58451" fill="#5869D9" fill-opacity="0.3" stroke="#5869D9" stroke-width="3"/>
<path d="M205.564 227.969C211.784 227.969 216.826 233.011 216.827 239.23C216.827 243.569 214.372 247.332 210.777 249.213V258.033C210.777 260.911 208.443 263.245 205.565 263.245C202.687 263.245 200.353 260.911 200.353 258.033V249.214C196.757 247.333 194.302 243.569 194.302 239.23C194.303 233.011 199.344 227.969 205.564 227.969Z" fill="white"/>
<path d="M204.975 117.02C231.72 117.02 253.401 138.7 253.401 165.445V181.127H239.401V165.445C239.401 146.432 223.988 131.02 204.975 131.02C185.962 131.02 170.549 146.432 170.549 165.445V181.142H156.549V165.445C156.549 138.7 178.23 117.02 204.975 117.02Z" fill="#5869D9" fill-opacity="0.5" stroke="#5869D9" stroke-width="3"/>
<defs>
<radialGradient id="paint0_radial_2972_35774" cx="0" cy="0" r="1" gradientUnits="userSpaceOnUse" gradientTransform="translate(205.97 230) rotate(90) scale(230)">
<stop stop-color="#5869D9" stop-opacity="0.5"/>
<stop offset="0.889978" stop-color="#5869D9" stop-opacity="0"/>
</radialGradient>
<clipPath id="clip0_2972_35774">
<rect width="460" height="460" fill="white" transform="translate(-24.0298)"/>
</clipPath>
</defs>
</svg>
