<svg width="412" height="460" viewBox="0 0 412 460" fill="none" xmlns="http://www.w3.org/2000/svg">
<g clip-path="url(#clip0_2972_35879)">
<path opacity="0.32" d="M435.97 230C435.97 357.026 332.996 460 205.97 460C78.9447 460 -24.0298 357.026 -24.0298 230C-24.0298 102.975 78.9447 0 205.97 0C332.996 0 435.97 102.975 435.97 230Z" fill="url(#paint0_radial_2972_35879)"/>
</g>
<rect x="143.441" y="181.076" width="125.058" height="129.525" rx="8.58451" fill="white" fill-opacity="0.4" stroke="white" stroke-width="3"/>
<path d="M206.064 227.97C212.284 227.97 217.326 233.012 217.327 239.231C217.327 243.57 214.872 247.333 211.277 249.214V258.034C211.277 260.912 208.943 263.246 206.065 263.246C203.187 263.246 200.853 260.912 200.853 258.034V249.215C197.257 247.334 194.802 243.57 194.802 239.231C194.803 233.012 199.844 227.97 206.064 227.97Z" fill="#2F40AB"/>
<path d="M205.475 117.019C232.22 117.019 253.901 138.7 253.901 165.445V181.126H239.901V165.445C239.901 146.432 224.488 131.019 205.475 131.019C186.462 131.019 171.049 146.432 171.049 165.445V181.141H157.049V165.445C157.049 138.7 178.73 117.019 205.475 117.019Z" fill="white" fill-opacity="0.5" stroke="white" stroke-width="3"/>
<defs>
<radialGradient id="paint0_radial_2972_35879" cx="0" cy="0" r="1" gradientUnits="userSpaceOnUse" gradientTransform="translate(205.97 230) rotate(90) scale(230)">
<stop stop-color="#2F40AB" stop-opacity="0.5"/>
<stop offset="0.889978" stop-color="#2F40AB" stop-opacity="0"/>
</radialGradient>
<clipPath id="clip0_2972_35879">
<rect width="460" height="460" fill="white" transform="translate(-24.0298)"/>
</clipPath>
</defs>
</svg>
