<svg width="24" height="24" viewBox="0 0 24 24" fill="none" xmlns="http://www.w3.org/2000/svg">
<path d="M21.2472 1.63272C21.5606 1.42576 21.987 1.46113 22.263 1.73684C22.539 2.01284 22.5741 2.43929 22.3671 2.75281L22.263 2.87901L13.142 12.0006L22.263 21.1222L22.3671 21.2485C22.5743 21.562 22.539 21.9883 22.263 22.2643C21.987 22.5404 21.5607 22.5756 21.2472 22.3684L21.1209 22.2643L11.9999 13.1428L2.8789 22.2643C2.56348 22.5798 2.05222 22.5798 1.7368 22.2643C1.42172 21.9489 1.4215 21.4375 1.7368 21.1222L10.8578 12.0006L1.7368 2.87901L1.63269 2.75281C1.42594 2.43932 1.46091 2.01275 1.7368 1.73684C2.0127 1.46093 2.43924 1.42596 2.75271 1.63272L2.8789 1.73684L11.9999 10.8584L21.1209 1.73684L21.2472 1.63272Z" fill="#404040"/>
</svg>
