<svg width="302" height="302" viewBox="0 0 302 302" fill="none" xmlns="http://www.w3.org/2000/svg">
<path d="M226.984 101.353H227.974V100.733L227.417 100.462L226.984 101.353ZM151 237.58L150.637 238.501L151 238.644L151.362 238.501L151 237.58ZM75.0155 101.353L74.5826 100.462L74.0253 100.733L74.0253 101.353H75.0155ZM151 64.4204L151.433 63.5298L151 63.3194L150.567 63.5298L151 64.4204ZM226.984 101.353H225.994C225.994 123.137 220.875 151.6 208.869 177.312C196.864 203.023 178.024 225.883 150.637 236.658L151 237.58L151.362 238.501C179.375 227.48 198.526 204.144 210.664 178.15C222.801 152.155 227.974 123.403 227.974 101.353H226.984ZM151 237.58L151.362 236.658C123.976 225.883 105.135 203.023 93.1304 177.312C81.1252 151.6 76.0058 123.137 76.0057 101.353H75.0155H74.0253C74.0253 123.403 79.1986 152.155 91.3359 178.15C103.473 204.144 122.625 227.48 150.637 238.501L151 237.58ZM75.0155 101.353L75.4484 102.244L151.433 65.311L151 64.4204L150.567 63.5298L74.5826 100.462L75.0155 101.353ZM151 64.4204L150.567 65.311L226.551 102.244L226.984 101.353L227.417 100.462L151.433 63.5298L151 64.4204Z" fill="#5869D9"/>
<path d="M151 237.579V64.4204L226.984 101.353C226.984 145.188 206.399 215.783 151 237.579Z" fill="#5869D9" fill-opacity="0.2"/>
<path d="M151 237.579V64.4204L75.0158 101.353C75.0158 145.188 95.6012 215.783 151 237.579Z" fill="#5869D9" fill-opacity="0.6"/>
<g opacity="0.3" filter="url(#filter0_f_316_33638)">
<circle cx="151.409" cy="150.914" r="30.3491" fill="#3243AE"/>
</g>
<path d="M176.399 150.889C176.399 164.691 165.21 175.88 151.408 175.88C137.606 175.88 126.418 164.691 126.418 150.889C126.418 137.086 137.606 125.897 151.408 125.897C165.21 125.897 176.399 137.086 176.399 150.889Z" fill="#5869D9"/>
<path fill-rule="evenodd" clip-rule="evenodd" d="M145.444 138.364C147.026 136.782 149.172 135.894 151.408 135.894C153.645 135.894 155.791 136.782 157.372 138.364C158.954 139.946 159.843 142.091 159.843 144.328C159.843 146.565 158.954 148.71 157.372 150.292C156.403 151.261 155.222 151.97 153.938 152.374C156.47 152.86 158.821 154.069 160.677 155.878C163.14 158.278 164.529 161.539 164.529 164.945C164.529 165.194 164.43 165.432 164.254 165.608C164.078 165.784 163.84 165.882 163.591 165.882H139.226C138.977 165.882 138.739 165.784 138.563 165.608C138.387 165.432 138.288 165.194 138.288 164.945C138.288 161.539 139.677 158.278 142.14 155.878C143.995 154.069 146.347 152.86 148.879 152.374C147.595 151.97 146.414 151.261 145.444 150.292C143.863 148.71 142.974 146.565 142.974 144.328C142.974 142.091 143.863 139.946 145.444 138.364ZM151.408 137.768C149.669 137.768 148 138.459 146.77 139.689C145.54 140.919 144.848 142.588 144.848 144.328C144.848 146.068 145.54 147.736 146.77 148.967C148 150.197 149.669 150.888 151.408 150.888C153.148 150.888 154.817 150.197 156.047 148.967C157.277 147.736 157.969 146.068 157.969 144.328C157.969 142.588 157.277 140.919 156.047 139.689C154.817 138.459 153.148 137.768 151.408 137.768ZM151.408 154.008C148.418 154.008 145.555 155.166 143.448 157.22C141.57 159.05 140.43 161.458 140.204 164.008H162.613C162.387 161.458 161.247 159.05 159.369 157.22C157.262 155.166 154.399 154.008 151.408 154.008Z" fill="white"/>
<defs>
<filter id="filter0_f_316_33638" x="104.225" y="103.731" width="94.3664" height="94.3664" filterUnits="userSpaceOnUse" color-interpolation-filters="sRGB">
<feFlood flood-opacity="0" result="BackgroundImageFix"/>
<feBlend mode="normal" in="SourceGraphic" in2="BackgroundImageFix" result="shape"/>
<feGaussianBlur stdDeviation="8.41703" result="effect1_foregroundBlur_316_33638"/>
</filter>
</defs>
</svg>
