<svg width="302" height="302" viewBox="0 0 302 302" fill="none" xmlns="http://www.w3.org/2000/svg">
<path d="M226.984 101.353H227.984V100.727L227.421 100.454L226.984 101.353ZM151 237.579L150.634 238.51L151 238.654L151.366 238.51L151 237.579ZM75.0155 101.353L74.5784 100.454L74.0155 100.727L74.0155 101.353H75.0155ZM151 64.4203L151.437 63.5209L151 63.3084L150.563 63.5209L151 64.4203ZM226.984 101.353H225.984C225.984 123.136 220.865 151.598 208.861 177.308C196.856 203.017 178.017 225.875 150.634 236.649L151 237.579L151.366 238.51C179.382 227.488 198.535 204.15 210.673 178.154C222.811 152.158 227.984 123.405 227.984 101.353H226.984ZM151 237.579L151.366 236.649C123.983 225.875 105.143 203.017 93.1392 177.308C81.1347 151.598 76.0155 123.136 76.0155 101.353H75.0155H74.0155C74.0155 123.405 79.1891 152.158 91.327 178.154C103.465 204.15 122.618 227.488 150.634 238.51L151 237.579ZM75.0155 101.353L75.4527 102.252L151.437 65.3197L151 64.4203L150.563 63.5209L74.5784 100.454L75.0155 101.353ZM151 64.4203L150.563 65.3197L226.547 102.252L226.984 101.353L227.421 100.454L151.437 63.5209L151 64.4203Z" fill="white"/>
<path d="M151 237.579V64.4203L226.985 101.353C226.985 145.187 206.399 215.783 151 237.579Z" fill="white" fill-opacity="0.2"/>
<path d="M151 237.579V64.4203L75.0158 101.353C75.0158 145.187 95.6012 215.783 151 237.579Z" fill="white" fill-opacity="0.6"/>
<g opacity="0.3" filter="url(#filter0_f_316_33553)">
<circle cx="151.409" cy="150.914" r="30.3491" fill="#3243AE"/>
</g>
<path d="M176.399 150.888C176.399 164.691 165.21 175.879 151.408 175.879C137.606 175.879 126.418 164.691 126.418 150.888C126.418 137.086 137.606 125.897 151.408 125.897C165.21 125.897 176.399 137.086 176.399 150.888Z" fill="#3243AE"/>
<rect width="29.9888" height="29.9888" transform="translate(136.414 135.893)" fill="#3243AE"/>
<path fill-rule="evenodd" clip-rule="evenodd" d="M145.444 138.364C147.026 136.782 149.172 135.893 151.408 135.893C153.645 135.893 155.791 136.782 157.372 138.364C158.954 139.946 159.843 142.091 159.843 144.328C159.843 146.565 158.954 148.71 157.372 150.292C156.403 151.261 155.222 151.97 153.938 152.374C156.47 152.86 158.821 154.069 160.677 155.877C163.14 158.278 164.529 161.539 164.529 164.945C164.529 165.194 164.43 165.432 164.254 165.608C164.078 165.783 163.84 165.882 163.591 165.882H139.226C138.977 165.882 138.739 165.783 138.563 165.608C138.387 165.432 138.288 165.194 138.288 164.945C138.288 161.539 139.677 158.278 142.14 155.877C143.995 154.069 146.347 152.86 148.879 152.374C147.595 151.97 146.414 151.261 145.444 150.292C143.863 148.71 142.974 146.565 142.974 144.328C142.974 142.091 143.863 139.946 145.444 138.364ZM151.408 137.768C149.669 137.768 148 138.459 146.77 139.689C145.54 140.919 144.848 142.588 144.848 144.328C144.848 146.068 145.54 147.736 146.77 148.966C148 150.197 149.669 150.888 151.408 150.888C153.148 150.888 154.817 150.197 156.047 148.966C157.277 147.736 157.969 146.068 157.969 144.328C157.969 142.588 157.277 140.919 156.047 139.689C154.817 138.459 153.148 137.768 151.408 137.768ZM151.408 154.008C148.418 154.008 145.555 155.166 143.448 157.22C141.57 159.05 140.43 161.457 140.204 164.008H162.613C162.387 161.457 161.247 159.05 159.369 157.22C157.262 155.166 154.399 154.008 151.408 154.008Z" fill="white"/>
<defs>
<filter id="filter0_f_316_33553" x="104.225" y="103.731" width="94.3664" height="94.3664" filterUnits="userSpaceOnUse" color-interpolation-filters="sRGB">
<feFlood flood-opacity="0" result="BackgroundImageFix"/>
<feBlend mode="normal" in="SourceGraphic" in2="BackgroundImageFix" result="shape"/>
<feGaussianBlur stdDeviation="8.41703" result="effect1_foregroundBlur_316_33553"/>
</filter>
</defs>
</svg>
