<svg width="302" height="302" viewBox="0 0 302 302" fill="none" xmlns="http://www.w3.org/2000/svg">
<rect x="87.9712" y="101.575" width="126.058" height="130.525" rx="9.08451" fill="white" fill-opacity="0.3" stroke="white" stroke-width="2"/>
<path d="M151.094 148.969C157.314 148.969 162.356 154.011 162.356 160.231C162.356 164.569 159.902 168.332 156.307 170.213V179.034C156.307 181.912 153.973 184.246 151.095 184.246C148.216 184.246 145.883 181.912 145.883 179.034V170.214C142.287 168.333 139.832 164.57 139.832 160.231C139.832 154.011 144.874 148.97 151.094 148.969Z" fill="#2F40AB"/>
<g filter="url(#filter0_d_1339_4464)">
<path d="M244.404 233.1C244.404 249.324 231.252 262.475 215.029 262.475C198.806 262.475 185.655 249.324 185.655 233.1C185.655 216.877 198.806 203.725 215.029 203.725C231.252 203.725 244.404 216.877 244.404 233.1Z" fill="#3243AE"/>
<rect width="35.2494" height="35.2494" transform="translate(197.405 215.475)" fill="#3243AE"/>
<path fill-rule="evenodd" clip-rule="evenodd" d="M215.029 215.476C219.668 215.434 224.264 216.372 228.515 218.228L228.533 218.235C229.109 218.499 229.596 218.923 229.936 219.457C230.276 219.99 230.454 220.61 230.451 221.241V232.421C230.451 236.178 229.312 239.847 227.185 242.944C225.058 246.042 222.042 248.421 218.535 249.77L217.007 250.358C216.37 250.603 215.699 250.726 215.029 250.726C214.359 250.726 213.688 250.603 213.052 250.358L211.523 249.77C208.016 248.421 205 246.042 202.873 242.944C200.746 239.847 199.607 236.178 199.607 232.421V221.241C199.604 220.61 199.782 219.99 200.122 219.457C200.462 218.923 200.95 218.499 201.525 218.235L201.544 218.228C205.795 216.372 210.391 215.434 215.029 215.476ZM215.019 217.68C210.691 217.64 206.403 218.512 202.435 220.242C202.249 220.329 202.091 220.468 201.98 220.642C201.868 220.817 201.809 221.022 201.81 221.23V232.421C201.81 235.733 202.814 238.967 204.689 241.697C206.564 244.427 209.223 246.526 212.314 247.715L213.843 248.302C214.224 248.449 214.627 248.522 215.029 248.522C215.431 248.522 215.834 248.449 216.216 248.302L217.745 247.715C220.836 246.526 223.494 244.427 225.369 241.697C227.244 238.967 228.248 235.733 228.248 232.421V221.23C228.249 221.022 228.19 220.817 228.078 220.642C227.967 220.468 227.809 220.329 227.623 220.242C223.656 218.512 219.368 217.639 215.04 217.679L215.019 217.68ZM221.86 225.461C222.226 224.975 222.916 224.877 223.402 225.243C223.888 225.609 223.986 226.299 223.62 226.785L213.547 240.172C213.316 240.487 213.015 240.745 212.663 240.922C212.307 241.1 211.912 241.188 211.512 241.176C211.113 241.163 210.725 241.051 210.382 240.852C210.042 240.654 209.758 240.379 209.547 240.052L206.404 235.368C206.065 234.863 206.2 234.179 206.705 233.84C207.21 233.501 207.894 233.636 208.233 234.141L211.382 238.834L211.396 238.855C211.423 238.898 211.456 238.928 211.488 238.946C211.52 238.965 211.552 238.974 211.582 238.975C211.611 238.975 211.643 238.969 211.675 238.953C211.706 238.937 211.74 238.911 211.768 238.871L211.781 238.854L221.86 225.461Z" fill="white"/>
</g>
<path d="M150.505 38.519C176.973 38.519 198.43 59.9761 198.43 86.4448V101.626H185.43V86.4448C185.43 67.1558 169.794 51.519 150.505 51.519C131.216 51.519 115.579 67.1558 115.579 86.4448V101.641H102.579V86.4448C102.579 59.9761 124.036 38.519 150.505 38.519Z" fill="white" fill-opacity="0.5" stroke="white" stroke-width="2"/>
<defs>
<filter id="filter0_d_1339_4464" x="175.655" y="197.725" width="78.749" height="78.75" filterUnits="userSpaceOnUse" color-interpolation-filters="sRGB">
<feFlood flood-opacity="0" result="BackgroundImageFix"/>
<feColorMatrix in="SourceAlpha" type="matrix" values="0 0 0 0 0 0 0 0 0 0 0 0 0 0 0 0 0 0 127 0" result="hardAlpha"/>
<feOffset dy="4"/>
<feGaussianBlur stdDeviation="5"/>
<feComposite in2="hardAlpha" operator="out"/>
<feColorMatrix type="matrix" values="0 0 0 0 0.196078 0 0 0 0 0.262745 0 0 0 0 0.682353 0 0 0 0.3 0"/>
<feBlend mode="normal" in2="BackgroundImageFix" result="effect1_dropShadow_1339_4464"/>
<feBlend mode="normal" in="SourceGraphic" in2="effect1_dropShadow_1339_4464" result="shape"/>
</filter>
</defs>
</svg>
