<svg width="20" height="20" viewBox="0 0 20 20" fill="none" xmlns="http://www.w3.org/2000/svg">
<path d="M10 0.000976562C12.6318 -0.0226209 15.2392 0.508733 17.6514 1.56152L17.6621 1.56641C17.9887 1.71593 18.265 1.95689 18.458 2.25977C18.6506 2.56196 18.7519 2.91319 18.75 3.27148V9.61523C18.7499 11.7469 18.1042 13.8287 16.8975 15.5859C15.6906 17.3433 13.979 18.6936 11.9893 19.459L11.1221 19.792C10.7611 19.9308 10.3803 20.001 10 20.001C9.6197 20.001 9.23892 19.9308 8.87793 19.792L8.01074 19.459C6.02115 18.6936 4.31038 17.3431 3.10352 15.5859C1.89672 13.8287 1.25011 11.7469 1.25 9.61523V3.27148C1.24807 2.91323 1.34947 2.56194 1.54199 2.25977C1.73498 1.95694 2.01142 1.71593 2.33789 1.56641L2.34863 1.56152C4.76085 0.508696 7.36818 -0.0226068 10 0.000976562ZM9.99414 1.25098C7.53841 1.22822 5.10559 1.72352 2.85449 2.70508C2.74872 2.75447 2.65945 2.83314 2.59668 2.93164C2.53308 3.03144 2.49921 3.14729 2.5 3.26562V9.61523C2.50011 11.4943 3.07003 13.329 4.13379 14.8779C5.1976 16.4269 6.70615 17.6173 8.45996 18.292L9.32715 18.626C9.54369 18.7092 9.77185 18.751 10 18.751C10.2281 18.751 10.4563 18.7092 10.6729 18.626L11.541 18.292C13.2947 17.6173 14.8035 16.4268 15.8672 14.8779C16.9308 13.3291 17.4999 11.4941 17.5 9.61523V3.26562C17.5008 3.14743 17.4677 3.03136 17.4043 2.93164C17.3415 2.83314 17.2513 2.75447 17.1455 2.70508C14.8944 1.72355 12.4616 1.2282 10.0059 1.25098H9.99414ZM13.876 5.66602C14.0835 5.39025 14.4752 5.33453 14.751 5.54199C15.0266 5.74945 15.0822 6.14121 14.875 6.41699L9.15918 14.0127C9.02852 14.1916 8.85692 14.3383 8.65723 14.4385C8.45535 14.5397 8.23153 14.5891 8.00488 14.582C7.77837 14.5749 7.55829 14.5117 7.36328 14.3984C7.1708 14.2866 7.00839 14.1298 6.88867 13.9443L5.10645 11.2871C4.91414 11.0005 4.9907 10.6122 5.27734 10.4199C5.56396 10.2278 5.95228 10.3043 6.14453 10.5908L7.93066 13.2539L7.93848 13.2656C7.95384 13.2897 7.97295 13.3068 7.99121 13.3174C8.00919 13.3278 8.02717 13.3325 8.04395 13.333C8.06075 13.3335 8.07879 13.3302 8.09668 13.3213C8.11479 13.3122 8.13417 13.2968 8.15039 13.2744L8.15723 13.2646L13.876 5.66602Z" fill="#3EBF4D"/>
</svg>
